<svg width="0" height="0" class="hidden">
  <symbol fill="none" xmlns="http://www.w3.org/2000/svg" viewBox="0 0 19 19" id="icon-phone">
    <path d="M15.572 18.985h-.941c-4.129-.488-7.157-2.408-9.359-4.864C3.062 11.66 1.318 8.492.978 4.228V3.084c.078-.774.459-1.304.898-1.757C2.425.766 3.25.044 4.002.019c.554-.018 1.5.38 1.879.899.329.446.504 1.339.656 2.003.154.671.505 1.643.408 2.289-.148 1.007-1.487 1.434-1.879 2.166 1.307 3.135 3.443 5.439 6.293 7.031.715-.392 1.346-1.572 2.332-1.595.359-.009.818.178 1.184.286.402.121.75.275 1.104.408.596.224 1.648.521 2.004 1.021.365.513.57 1.356.49 1.879-.164 1.041-1.879 2.197-2.901 2.579z" fill="#B7BFC8"></path>
  </symbol>
  <symbol fill="none" xmlns="http://www.w3.org/2000/svg" viewBox="0 0 8 14" id="icon-right-small">
    <path d="M7.237 6.642L1.729 1.133a.506.506 0 10-.716.716L6.163 7l-5.151 5.15a.507.507 0 00.716.717l5.509-5.509a.504.504 0 000-.716z" fill="#C1C6CE"></path>
  </symbol>
  <symbol fill="none" xmlns="http://www.w3.org/2000/svg" viewBox="0 0 17 17" id="icon-search">
    <path fill-rule="evenodd" clip-rule="evenodd" d="M13.458 12.044L17 15.586 15.586 17l-3.542-3.542A7.465 7.465 0 017.5 15 7.5 7.5 0 1115 7.5c0 1.643-.542 3.24-1.542 4.544zM7.5 2A5.506 5.506 0 002 7.5 5.506 5.506 0 007.5 13c3.032 0 5.5-2.468 5.5-5.5C13 4.467 10.532 2 7.5 2z" fill="#fff"></path>
  </symbol>
  <symbol fill="none" xmlns="http://www.w3.org/2000/svg" viewBox="0 0 20 18" id="icon-user">
    <path d="M17.881 14.166c-2.144-.735-4.256-1.666-5.207-2.39-.657-.501-.77-1.618-.517-2.415 1.118-.903 1.864-2.477 1.864-4.278C14.021 2.276 12.221 0 10 0S5.979 2.276 5.979 5.083c0 1.801.746 3.374 1.863 4.277.253.798.141 1.915-.517 2.416-.95.724-3.063 1.654-5.207 2.39C-.026 14.902 0 18 0 18h20s.025-3.099-2.119-3.834z" fill="#C5C5C5"></path>
  </symbol>
  <symbol fill="none" xmlns="http://www.w3.org/2000/svg" viewBox="0 0 14 16" id="icon-vk">
    <path d="M14 15c0 .55-.368.741-.818.426l-5.363-3.765c-.45-.315-1.187-.315-1.637 0L.818 15.426C.368 15.741 0 15.55 0 15V1c0-.55.45-1 1-1h12c.55 0 1 .45 1 1v14z" fill="#fff"></path>
  </symbol>
  <symbol fill="none" xmlns="http://www.w3.org/2000/svg" viewBox="0 0 15 15" id="radio-off">
    <path d="M4.5 15a1.5 1.5 0 100-3 1.5 1.5 0 000 3zm8 0a1.5 1.5 0 100-3 1.5 1.5 0 000 3zM15 2H4.07l-.422-2H0v2h2.031l1.985 9H15V9H9.441L15 6.951V2z" fill="#fff"></path>
  </symbol>
  <symbol fill="none" xmlns="http://www.w3.org/2000/svg" viewBox="0 0 21 17" id="radio-on">
    <path d="M14.875 8.5L6 0v6H0v5h6v6l8.875-8.5z" fill="#C5C5C5"></path>
    <path d="M16.986 15.01h-5.027V17h5.027c2.178 0 3.004-1.81 3.029-3.026V3.028C19.99 1.811 19.164 0 16.986 0h-5.027v1.99h5.027c.839 0 .992.681 1.01 1.057v10.904c-.017.376-.171 1.059-1.01 1.059z" fill="#C5C5C5"></path>
  </symbol>
  <symbol fill="none" xmlns="http://www.w3.org/2000/svg" viewBox="0 0 20 17" id="checkbox-off">
    <path d="M20 8.5L11.125 0v6h-6v5h6v6L20 8.5z" fill="#C5C5C5"></path>
    <path d="M2.106 13.952V3.048c.018-.376.171-1.057 1.01-1.057h5.027V0H3.116C.938 0 .112 1.81.087 3.027v10.946C.112 15.189.938 17 3.116 17h5.027v-1.99H3.116c-.839 0-.992-.683-1.01-1.058z" fill="#C5C5C5"></path>
  </symbol>
  <symbol fill="none" xmlns="http://www.w3.org/2000/svg" viewBox="0 0 25 25" id="checkbox-on">
    <path fill-rule="evenodd" clip-rule="evenodd" d="M0 12.5C0 5.597 5.597 0 12.5 0S25 5.597 25 12.5 19.403 25 12.5 25 0 19.403 0 12.5zm21 0C21 7.813 17.187 4 12.5 4 7.813 4 4 7.813 4 12.5c0 4.687 3.813 8.5 8.5 8.5 4.687 0 8.5-3.813 8.5-8.5z" fill="#C5C5C5"></path>
  </symbol>
  <symbol fill="none" xmlns="http://www.w3.org/2000/svg" viewBox="0 0 25 25" id="filter-button">
    <path fill-rule="evenodd" clip-rule="evenodd" d="M0 12.5C0 5.597 5.597 0 12.5 0S25 5.597 25 12.5 19.403 25 12.5 25 0 19.403 0 12.5zm21 0C21 7.813 17.187 4 12.5 4 7.813 4 4 7.813 4 12.5c0 4.687 3.813 8.5 8.5 8.5 4.687 0 8.5-3.813 8.5-8.5z" fill="#C5C5C5"></path>
    <path d="M12.5 17a4.5 4.5 0 100-9 4.5 4.5 0 000 9z" fill="#C5C5C5"></path>
  </symbol>
  <symbol fill="none" xmlns="http://www.w3.org/2000/svg" viewBox="0 0 23 23" id="icon-1">
    <path fill-rule="evenodd" clip-rule="evenodd" d="M3 0h17c1.65 0 3 1.35 3 3v17c0 1.65-1.35 3-3 3H3c-1.65 0-3-1.35-3-3V3c0-1.65 1.35-3 3-3zm18 3c0-.542-.458-1-1-1H3c-.542 0-1 .458-1 1v17c0 .542.458 1 1 1h17c.542 0 1-.458 1-1V3z" fill="#C5C5C5"></path>
  </symbol>
  <symbol fill="none" xmlns="http://www.w3.org/2000/svg" viewBox="0 0 27 23" id="icon-2">
    <path d="M7.285 7.486l-2.829 2.829 7.783 7.783L26.171 4.166l-2.828-2.829-11.104 11.102-4.954-4.953z" fill="#C5C5C5"></path>
    <path d="M21 20c0 .542-.458 1-1 1H3c-.542 0-1-.458-1-1V3c0-.542.458-1 1-1h16.908L21.493.415A2.96 2.96 0 0020 0H3C1.35 0 0 1.35 0 3v17c0 1.65 1.35 3 3 3h17c1.65 0 3-1.35 3-3v-9.829l-2 2V20z" fill="#C5C5C5"></path>
  </symbol>
  <symbol fill="none" xmlns="http://www.w3.org/2000/svg" viewBox="0 0 20 22" id="icon-3">
    <path opacity=".3" d="M10 20C4.477 20 0 15.522 0 10v2c0 5.522 4.477 10 10 10 5.522 0 10-4.478 10-10v-2c0 5.522-4.478 10-10 10z" fill="#ABABAB"></path>
    <path d="M10 20c5.523 0 10-4.477 10-10S15.523 0 10 0 0 4.477 0 10s4.477 10 10 10z" fill="#fff"></path>
    <path d="M10 12a2 2 0 100-4 2 2 0 000 4z" fill="#ABABAB"></path>
  </symbol>
  <symbol fill="none" xmlns="http://www.w3.org/2000/svg" viewBox="0 0 21 21" id="icon-4">
    <path d="M13.273 10.5l7.422-7.422a1.003 1.003 0 000-1.414L19.336.305a1.003 1.003 0 00-1.414 0L10.5 7.727 3.078.305a1.003 1.003 0 00-1.414 0L.305 1.664a1.003 1.003 0 000 1.414L7.727 10.5.306 17.922a1.003 1.003 0 000 1.414l1.359 1.359a1.003 1.003 0 001.414 0l7.422-7.422 7.422 7.422a1.003 1.003 0 001.414 0l1.359-1.359a1.003 1.003 0 000-1.414L13.273 10.5z" fill="#EE3643"></path>
  </symbol>
  <symbol fill="none" xmlns="http://www.w3.org/2000/svg" viewBox="0 0 12 22" id="icon-5">
    <path d="M12 4V0H8a4 4 0 00-4 4v4H0v4h4v10h4V12h4V8H8V4h4z" fill="#fff"></path>
  </symbol>
  <symbol fill="none" xmlns="http://www.w3.org/2000/svg" viewBox="0 0 21 21" id="icon-bookmark">
    <path fill-rule="evenodd" clip-rule="evenodd" d="M3 0h15c1.65 0 3 1.35 3 3v15c0 1.65-1.35 3-3 3H3c-1.65 0-3-1.35-3-3V3c0-1.65 1.35-3 3-3zm11 10.5C14 8.57 12.43 7 10.5 7S7 8.57 7 10.5 8.57 14 10.5 14s3.5-1.57 3.5-3.5zM3 18V9h1.181A6.48 6.48 0 004 10.5a6.5 6.5 0 1013 0 6.451 6.451 0 00-.181-1.5H18v9H3zM14 7h4V3h-4v4z" fill="#fff"></path>
  </symbol>
  <symbol fill="none" xmlns="http://www.w3.org/2000/svg" viewBox="0 0 23 41" id="icon-cart">
    <path d="M20.83.965l2.089 2.099L5.13 20.947l17.847 17.939-2.09 2.099L.952 20.947 20.83.965z" fill="#fff"></path>
  </symbol>
  <symbol fill="none" xmlns="http://www.w3.org/2000/svg" viewBox="0 0 66 66" id="icon-close">
    <path d="M33 66c18.225 0 33-14.775 33-33S51.225 0 33 0 0 14.775 0 33s14.775 33 33 33z" fill="#63A63E"></path>
    <path d="M49.641 21.066a1.003 1.003 0 00-1.414 0L29.788 39.504a1.003 1.003 0 01-1.414 0l-8.14-8.139a1.003 1.003 0 00-1.414 0L15.285 34.9a1.003 1.003 0 000 1.414l13.089 13.09a1.003 1.003 0 001.414 0l3.536-3.536 1.414-1.414 18.438-18.438a1.003 1.003 0 000-1.414l-3.535-3.536z" fill="#fff"></path>
  </symbol>
</svg>